<?xml version="1.0" encoding="iso-8859-1"?>
<!-- Uploaded to: SVG Repo, www.svgrepo.com, Generator: SVG Repo Mixer Tools -->
<svg version="1.1" id="Layer_1" xmlns="http://www.w3.org/2000/svg" xmlns:xlink="http://www.w3.org/1999/xlink" 
	 viewBox="0 0 512 512" xml:space="preserve">
<circle cx="256" cy="256" r="256"/>
<g>
	<path style="fill:#F33052;" d="M338.4,198.88H173.6c-8.24,0-14.96-6.72-14.96-14.96V78.96C158.56,70.72,165.28,64,173.6,64h164.8
		c8.24,0,14.96,6.72,14.96,14.96v104.88C353.44,192.16,346.72,198.88,338.4,198.88z"/>
	<polygon style="fill:#F33052;" points="308.48,243.84 308.48,183.92 233.52,183.92 	"/>
</g>
<g>
	<rect x="248.48" y="108.96" style="fill:#FFFFFF;" width="14.96" height="14.96"/>
	<rect x="218.56" y="108.96" style="fill:#FFFFFF;" width="14.96" height="14.96"/>
	<rect x="188.56" y="108.96" style="fill:#FFFFFF;" width="14.96" height="14.96"/>
	<rect x="278.48" y="108.96" style="fill:#FFFFFF;" width="14.96" height="14.96"/>
	<rect x="308.48" y="108.96" style="fill:#FFFFFF;" width="14.96" height="14.96"/>
	<rect x="248.48" y="138.96" style="fill:#FFFFFF;" width="14.96" height="14.96"/>
	<rect x="278.48" y="138.96" style="fill:#FFFFFF;" width="14.96" height="14.96"/>
	<rect x="308.48" y="138.96" style="fill:#FFFFFF;" width="14.96" height="14.96"/>
	<circle style="fill:#FFFFFF;" cx="344.32" cy="305.12" r="30.32"/>
	<path style="fill:#FFFFFF;" d="M396.64,402.8c0,0,0,1.44,0-26.88s-30.88-28.8-30.88-28.8H322.8c0,0-30.88,0.32-30.88,28.8
		c0,28.32,0,26.88,0,26.88H396.64z"/>
	<circle style="fill:#FFFFFF;" cx="167.68" cy="305.12" r="30.32"/>
	<path style="fill:#FFFFFF;" d="M220.08,402.8c0,0,0,1.44,0-26.88s-30.88-28.8-30.88-28.8h-42.96c0,0-30.88,0.32-30.88,28.8
		c0,28.32,0,26.88,0,26.88H220.08z"/>
</g>
</svg>